PathFileType	3	(X/Y/Z)	D:\minhoCalibration\240510\subject2_KPNP\preferred\preferred10.trc
DataRate	CameraRate	NumFrames	NumMarkers	Units	OrigDataRate	OrigDataStartFrame	OrigNumFrames
200.0	200.0	27	10	mm	200.0	279	172	
Frame#	Time	Left_Ankle_Outer1			Left_Ankle_Inner1			Left_Knee_Outer1			Left_Knee_Inner1			Left_Wrist1			Right_Wrist1			Right_Knee_Inner1			Right_Knee_Outer1			Right_Ankle_Inner1			Right_Ankle_Outer1			
		X1	Y1	Z1	X2	Y2	Z2	X3	Y3	Z3	X4	Y4	Z4	X5	Y5	Z5	X6	Y6	Z6	X7	Y7	Z7	X8	Y8	Z8	X9	Y9	Z9	X10	Y10	Z10	
279	1.385	-664.01642	83.217018	-729.53265	-691.81519	87.871193	-676.91583	-476.48499	499.90857	-665.60645	-565.02618	482.13455	-606.70453	-589.52271	909.17761	-801.4187	-902.0144	948.34686	-927.56067	-938.48029	445.70975	-966.67261	-994.17365	491.26089	-1026.4517	-909.46936	93.737152	-1169.1272	-980.45496	121.87954	-1229.4164
280	1.39	-664.43359	84.205872	-729.98871	-691.7356	87.258125	-680.67383	-475.48044	498.76361	-660.28638	-565.26349	480.58475	-603.87567	-587.2287	907.70758	-799.74011	-901.22455	948.15924	-920.63861	-940.16425	444.0065	-961.36365	-997.00818	491.64624	-1019.8362	-910.70416	96.377945	-1167.4882	-980.38788	124.43546	-1227.8522
281	1.395	-663.54236	85.336151	-729.63129	-691.30304	87.416901	-681.58655	-474.46521	499.18704	-654.06592	-565.29828	480.23929	-601.17865	-584.88269	906.27557	-798.17963	-900.64069	948.1319	-915.29852	-943.59296	443.65637	-953.13379	-999.94098	491.81296	-1014.1015	-911.24286	98.860619	-1165.7823	-980.59351	127.78418	-1226.1497
282	1.4	-661.61804	86.159866	-729.13232	-689.99274	88.119255	-681.05707	-473.6684	500.34665	-648.07751	-565.31482	481.09152	-597.9278	-582.52423	905.29889	-796.57672	-899.83728	948.64941	-909.49591	-947.20087	444.93448	-942.85742	-1003.1961	492.39288	-1006.6516	-910.37103	102.2322	-1164.0566	-980.85663	131.61841	-1224.0492
283	1.405	-659.55957	86.748558	-728.63019	-688.61737	88.542114	-681.03754	-473.16592	501.86975	-642.81714	-565.12384	482.57446	-595.31238	-579.86469	904.72046	-794.92883	-898.672	949.41498	-904.62689	-951.73419	448.79718	-927.10699	-1005.7844	494.10956	-999.80481	-910.63544	106.13109	-1162.0851	-981.66095	136.1433	-1221.6296
284	1.41	-657.98425	87.393105	-728.15405	-687.3443	88.947891	-681.06927	-472.71625	503.5394	-638.36542	-564.94824	484.50836	-592.4671	-577.07251	904.74945	-793.74689	-897.65582	949.78735	-896.32996	-952.96814	443.15637	-932.62457	-1011.1404	495.07791	-990.08966	-913.51447	110.45349	-1159.3099	-982.5155	141.14474	-1218.8186
285	1.415	-656.74847	87.994087	-728.22504	-686.32947	89.528885	-680.64716	-472.259	505.15622	-634.6311	-564.14783	487.32458	-588.1134	-574.02722	905.11285	-791.93384	-896.31573	950.36914	-889.33441	-967.95502	450.82639	-909.11292	-1015.3932	497.42169	-980.60016	-911.69104	115.97672	-1157.0352	-984.16412	147.112	-1215.8705
286	1.42	-655.70203	87.805267	-728.01373	-685.63599	89.496078	-680.90472	-472.07239	506.44839	-631.55402	-563.2312	487.69794	-587.77496	-570.40271	906.40167	-790.14044	-894.40662	951.36176	-882.57068	-964.48065	451.60764	-899.09235	-1020.4638	499.46671	-970.26672	-913.93823	121.93661	-1153.28	-985.80389	153.39133	-1212.0461
287	1.425	-654.89581	87.487022	-728.35931	-685.18127	89.196045	-681.5434	-471.84055	507.02536	-629.31671	-561.98639	488.82669	-584.45923	-566.32983	908.1286	-788.01715	-892.27014	952.12286	-873.20837	-963.8208	443.77835	-910.13977	-1025.4226	501.6806	-958.81549	-917.24908	127.87181	-1149.2819	-987.66614	160.70323	-1207.2812
288	1.43	-654.41107	87.001991	-728.95605	-685.09924	88.792877	-682.30273	-471.43512	506.6015	-627.99847	-560.49213	488.81604	-582.06659	-561.90558	910.26843	-785.81915	-889.86218	953.32257	-865.1543	-983.51666	458.41495	-875.67065	-1030.2896	504.58182	-946.33551	-919.55542	135.28743	-1143.9839	-990.14661	168.43741	-1201.7571
289	1.435	-654.14386	86.55938	-729.5874	-685.245	88.392693	-683.11761	-470.61603	505.50586	-627.11816	-559.06482	487.61142	-580.47583	-557.14929	912.68237	-783.18439	-886.78851	954.63031	-856.17474	-973.776	446.92987	-888.15491	-1035.7524	507.49438	-932.63159	-920.276	142.71678	-1138.8878	-992.98553	176.57846	-1195.0457
290	1.44	-654.08551	86.208504	-729.92969	-685.42291	88.162933	-683.5022	-469.57358	504.04428	-626.60907	-557.93494	486.00809	-579.26971	-552.4137	915.24066	-780.83801	-883.64154	956.41669	-847.92731	-978.20618	449.86511	-874.64038	-1039.7878	511.34711	-918.54791	-924.33008	150.84415	-1132.155	-996.33978	185.90927	-1187.923
291	1.445	-653.8938	86.052895	-730.13751	-685.46143	87.973373	-683.78766	-468.2886	502.51819	-625.80035	-557.24701	485.00958	-577.25299	-547.76892	917.84851	-778.49249	-880.22473	958.45764	-839.45013	-981.95306	453.63052	-859.23901	-1043.6061	514.9234	-904.07007	-927.04431	158.70697	-1125.2111	-999.87512	195.40318	-1179.5648
292	1.45	-652.97815	86.503044	-730.74982	-685.39612	87.896759	-683.98523	-467.04163	500.90082	-624.80945	-556.66168	483.27512	-576.84467	-542.88611	920.84375	-775.07239	-876.48645	960.81555	-831.05688	-990.69366	462.44159	-834.64594	-1046.9297	519.8183	-887.66443	-931.30652	167.75984	-1116.7443	-1003.7723	205.63223	-1170.4952
293	1.455	-652.76196	86.354156	-730.58496	-685.0929	87.801056	-684.18787	-465.60413	499.31049	-623.51697	-556.05444	481.71628	-576.86072	-539.00806	922.91174	-774.79425	-872.76605	963.44696	-822.80737	-988.18024	461.92499	-827.2287	-1049.4799	524.52673	-871.11597	-934.35455	176.24826	-1108.5154	-1007.4643	216.24838	-1160.7367
294	1.46	-652.23328	86.389404	-730.69531	-684.83539	87.979256	-684.18823	-464.01624	498.11307	-622.00037	-555.48444	480.4614	-577.12653	-533.51349	925.49689	-772.80804	-868.94641	966.33118	-814.52405	-990.12927	466.21005	-810.39594	-1051.2427	529.36176	-854.09155	-938.08014	185.91016	-1099.0931	-1011.0906	227.43626	-1150.3201
295	1.465	-651.76453	86.440346	-730.87555	-684.3728	87.593369	-685.58911	-462.25891	497.25406	-620.52386	-554.72375	479.58783	-577.71411	-529.83197	927.80688	-771.44373	-865.07629	969.50378	-806.32147	-997.17126	475.85373	-783.4754	-1052.6696	534.48151	-836.22699	-942.06854	196.17876	-1089.0554	-1014.6557	239.26929	-1138.9299
296	1.47	-651.15405	86.54805	-731.13226	-683.81799	88.006622	-685.63373	-460.48648	496.50208	-619.49677	-553.6629	479.08023	-578.5274	-525.12744	930.29272	-769.93793	-861.15405	972.83545	-798.04443	-997.81213	480.62558	-765.38336	-1053.6815	539.89526	-817.41583	-945.00073	206.65511	-1078.0099	-1018.0137	251.51321	-1126.8961
297	1.475	-650.60089	86.619064	-731.47192	-683.59192	87.265343	-687.4353	-458.60538	495.87036	-619.18982	-552.08923	478.87943	-579.62744	-520.55182	932.96838	-768.73431	-857.04407	976.34271	-789.62122	-997.8468	485.73709	-746.61835	-1053.8176	545.63599	-798.70618	-947.49683	218.42953	-1066.9725	-1020.9413	264.2121	-1114.1737
298	1.48	-650.01471	86.742592	-731.82794	-682.79132	88.705833	-686.30994	-456.4794	495.25995	-619.9386	-550.00134	479.06796	-580.83203	-515.3233	935.78699	-767.93878	-852.96277	980.12366	-780.9574	-997.5116	491.36078	-727.69971	-1053.6311	551.13702	-778.73279	-949.95557	230.40224	-1055.4045	-1023.3646	277.41431	-1101.0082
299	1.485	-649.55609	86.766281	-732.26447	-682.74786	88.019539	-688.04584	-454.38824	494.65448	-621.84479	-547.24133	479.45047	-582.16095	-510.75302	938.69293	-767.16357	-848.78906	984.08398	-771.96814	-995.68915	496.49124	-708.82458	-1052.7561	557.04706	-758.58264	-950.92816	243.55179	-1043.8698	-1025.6666	291.49106	-1087.6404
300	1.49	-649.02521	86.770699	-732.72662	-682.20117	88.500832	-688.31042	-452.32141	494.13754	-624.93677	-543.76642	479.93439	-583.61481	-506.13153	941.68695	-766.72736	-844.36462	988.2326	-762.61426	-993.66284	502.55722	-689.26056	-1051.7556	563.24988	-737.49518	-951.91943	257.91721	-1031.7714	-1027.3827	306.41159	-1073.7347
301	1.495	-648.39368	86.889084	-733.19434	-681.13232	88.607071	-689.93488	-450.2887	493.73438	-629.11035	-539.89355	480.37057	-585.22723	-501.13748	944.75684	-766.87714	-839.73767	992.5802	-752.87762	-989.63245	507.37576	-670.5249	-1049.2603	569.81689	-717.54181	-951.67078	273.73685	-1019.4858	-1028.3486	322.078	-1059.4708
302	1.5	-647.84546	87.09008	-733.7196	-680.91705	89.358482	-689.32892	-448.52756	493.36636	-634.01538	-535.73663	480.6944	-587.12012	-496.52542	947.59583	-767.30511	-834.73859	997.03583	-742.6839	-985.79999	512.72504	-651.78186	-1047.5048	576.6524	-695.1322	-951.02301	290.25177	-1006.518	-1028.2883	338.37064	-1044.6981
303	1.505	-647.21484	87.279266	-734.27454	-679.86975	89.678322	-690.71057	-446.79721	493.23462	-639.29541	-531.67371	480.96677	-589.28967	-491.9761	950.73535	-768.0484	-829.48419	1001.6265	-732.03558	-982.37054	519.79504	-631.466	-1044.8412	583.27673	-673.76184	-948.64874	306.70029	-993.53046	-1027.4421	355.19925	-1029.4857
304	1.51	-646.60211	87.514854	-734.85632	-678.90253	91.175697	-689.78595	-445.02872	493.2608	-644.93762	-527.93298	481.52884	-590.83838	-487.46756	953.60822	-769.70056	-823.79333	1006.3394	-721.04816	-977.62036	526.11902	-611.98627	-1041.8138	591.27014	-651.01324	-946.47797	324.11371	-979.86267	-1025.9192	372.56845	-1013.7845
305	1.515	-645.95172	87.855377	-735.48975	-678.10803	91.782555	-690.48029	-443.64648	493.43225	-650.62848	-524.31799	481.78229	-593.97784	-483.21649	956.45868	-771.78857	-817.81488	1011.2739	-709.84393	-972.09052	532.33832	-592.65033	-1038.0205	599.31573	-626.5545	-943.16565	342.01965	-966.05212	-1024.0203	390.55521	-997.52246
